<svg width="23" height="23" viewBox="0 0 23 23" fill="none" xmlns="http://www.w3.org/2000/svg">
<path d="M2.63971 1.48094H5.84975V0.632787C5.84975 0.283301 6.13306 0 6.48254 0C6.83202 0 7.11558 0.283307 7.11558 0.632787V1.48094H15.1521V0.632787C15.1521 0.283301 15.4356 0 15.7851 0C16.1346 0 16.4179 0.283307 16.4179 0.632787V1.48094H19.6279C20.3279 1.48171 20.9989 1.76018 21.494 2.25501C21.9888 2.74984 22.2673 3.42083 22.2681 4.12081V20.3183C22.2673 21.0182 21.9888 21.6892 21.494 22.1841C20.9989 22.6791 20.3279 22.9573 19.6279 22.9581H2.64006C1.94009 22.9574 1.26911 22.6792 0.774006 22.1841C0.279173 21.6892 0.000720978 21.0182 -6.10352e-05 20.3183V4.12081C0.000703812 3.42083 0.279173 2.74985 0.774006 2.25501C1.26909 1.76018 1.94009 1.48172 2.64006 1.48094H2.63971ZM21.0019 4.12081C21.0014 3.75656 20.8565 3.40734 20.5989 3.14976C20.3413 2.89216 19.9921 2.74707 19.6276 2.74682H16.4176V3.59497C16.4176 3.94446 16.1343 4.22776 15.7848 4.22776C15.4353 4.22776 15.1517 3.94445 15.1517 3.59497V2.74682H7.11525V3.59497H7.11551C7.11551 3.94446 6.83195 4.22776 6.48246 4.22776C6.13298 4.22776 5.84968 3.94445 5.84968 3.59497V2.74682H2.63964C2.27514 2.74707 1.92592 2.89216 1.66833 3.14976C1.41074 3.40735 1.2659 3.75658 1.26539 4.12081V7.94246H21.0018L21.0019 4.12081ZM2.63971 21.6951H19.6276C19.9926 21.6946 20.3424 21.5493 20.5999 21.2912C20.8575 21.0328 21.0021 20.6828 21.0019 20.3181V9.20002H1.26543V20.3181C1.26518 20.6828 1.40976 21.0328 1.66736 21.2912C1.92495 21.5493 2.27469 21.6946 2.63971 21.6951Z" fill="#273686"/>
</svg>
